<?xml version="1.0" standalone="no"?><!DOCTYPE svg PUBLIC "-//W3C//DTD SVG 1.1//EN"
        "http://www.w3.org/Graphics/SVG/1.1/DTD/svg11.dtd">
<svg viewBox="0 0 1024 1024" version="1.1" xmlns="http://www.w3.org/2000/svg"
     xmlns:xlink="http://www.w3.org/1999/xlink" width="200" height="200">
    <path fill="#0a66c2"
          d="M267.8 440.6C171.032 440.6 95 364.568 95 267.8S171.032 95 267.8 95S440.6 171.032 440.6 267.8C440.6 288.536 426.776 302.36 406.04 302.36S371.48 288.536 371.48 267.8C371.48 209.048 326.552 164.12 267.8 164.12S164.12 209.048 164.12 267.8S209.048 371.48 267.8 371.48C288.536 371.48 302.36 385.304 302.36 406.04S288.536 440.6 267.8 440.6Z"/>
    <path fill="#0a66c2" d="M751.64 440.6C730.904 440.6 717.08 426.776 717.08 406.04S730.904 371.48 751.64 371.48C810.392 371.48 855.32 326.552 855.32 267.8S810.392 164.12 751.64 164.12S647.96 209.048 647.96 267.8C647.96 288.536 634.136 302.36 613.4 302.36S578.84 288.536 578.84 267.8C578.84 171.032 654.872 95 751.64 95S924.44 171.032 924.44 267.8S848.408 440.6 751.64 440.6Z"/>
    <path fill="#0a66c2" d="M267.8 924.44C171.032 924.44 95 848.408 95 751.64S171.032 578.84 267.8 578.84C288.536 578.84 302.36 592.664 302.36 613.4S288.536 647.96 267.8 647.96C209.048 647.96 164.12 692.888 164.12 751.64S209.048 855.32 267.8 855.32S371.48 810.392 371.48 751.64C371.48 730.904 385.304 717.08 406.04 717.08S440.6 730.904 440.6 751.64C440.6 848.408 364.568 924.44 267.8 924.44Z"/>
    <path fill="#0a66c2" d="M751.64 924.44C654.872 924.44 578.84 848.408 578.84 751.64C578.84 730.904 592.664 717.08 613.4 717.08S647.96 730.904 647.96 751.64C647.96 810.392 692.888 855.32 751.64 855.32S855.32 810.392 855.32 751.64S810.392 647.96 751.64 647.96C730.904 647.96 717.08 634.136 717.08 613.4S730.904 578.84 751.64 578.84C848.408 578.84 924.44 654.872 924.44 751.64S848.408 924.44 751.64 924.44Z"/>
    <path fill="#0a66c2" d="M406.04 786.2C385.304 786.2 371.48 772.376 371.48 751.64V267.8C371.48 247.064 385.304 233.24 406.04 233.24S440.6 247.064 440.6 267.8V751.64C440.6 772.376 426.776 786.2 406.04 786.2Z"/>
    <path fill="#0a66c2" d="M613.4 786.2C592.664 786.2 578.84 772.376 578.84 751.64V267.8C578.84 247.064 592.664 233.24 613.4 233.24S647.96 247.064 647.96 267.8V751.64C647.96 772.376 634.136 786.2 613.4 786.2Z"/>
    <path fill="#0a66c2" d="M751.64 440.6H267.8C247.064 440.6 233.24 426.776 233.24 406.04S247.064 371.48 267.8 371.48H751.64C772.376 371.48 786.2 385.304 786.2 406.04S772.376 440.6 751.64 440.6Z"/>
    <path fill="#0a66c2" d="M751.64 647.96H267.8C247.064 647.96 233.24 634.136 233.24 613.4S247.064 578.84 267.8 578.84H751.64C772.376 578.84 786.2 592.664 786.2 613.4S772.376 647.96 751.64 647.96Z"/>
</svg>
